<?xml version="1.0" encoding="UTF-8" standalone="no"?>
<!-- Created with Inkscape (http://www.inkscape.org/) -->

<svg
   version="1.1"
   id="svg2"
   width="150"
   height="138.58054"
   viewBox="0 0 150 138.58053"
   sodipodi:docname="renarde-head.svg"
   inkscape:version="1.1.1 (3bf5ae0d25, 2021-09-20)"
   xmlns:inkscape="http://www.inkscape.org/namespaces/inkscape"
   xmlns:sodipodi="http://sodipodi.sourceforge.net/DTD/sodipodi-0.dtd"
   xmlns="http://www.w3.org/2000/svg"
   xmlns:svg="http://www.w3.org/2000/svg">
  <sodipodi:namedview
     id="namedview71"
     pagecolor="#ffffff"
     bordercolor="#666666"
     borderopacity="1.0"
     inkscape:pageshadow="2"
     inkscape:pageopacity="0.0"
     inkscape:pagecheckerboard="0"
     showgrid="false"
     inkscape:zoom="1.7789174"
     inkscape:cx="107.36867"
     inkscape:cy="227.94763"
     inkscape:window-width="1920"
     inkscape:window-height="1019"
     inkscape:window-x="1920"
     inkscape:window-y="32"
     inkscape:window-maximized="1"
     inkscape:current-layer="svg2"
     fit-margin-top="0"
     fit-margin-left="0"
     fit-margin-right="0"
     fit-margin-bottom="0" />
  <defs
     id="defs6">
    <clipPath
       clipPathUnits="userSpaceOnUse"
       id="clipPath1936">
      <rect
         style="fill:#ff7c2a;fill-opacity:1;stroke:#ff7c2a;stroke-width:7.719;stroke-linejoin:round;stroke-opacity:1"
         id="rect1938"
         width="410.62149"
         height="317.74445"
         x="495.13586"
         y="766.24585"
         ry="0" />
    </clipPath>
  </defs>
  <g
     id="layer1"
     style="display:inline"
     transform="translate(-568.66089,-945.40976)" />
  <g
     id="g1962"
     transform="translate(-58)">
    <g
       id="g1590"
       clip-path="url(#clipPath1936)"
       style="display:inline"
       transform="translate(-568.66089,-945.40976)">
      <path
         id="path126"
         style="display:inline;fill:none;fill-opacity:1;fill-rule:evenodd;stroke:#000000;stroke-width:4;stroke-linecap:round;stroke-linejoin:round;stroke-miterlimit:4;stroke-dasharray:none;stroke-opacity:1"
         d="m 612.87884,1190.4041 c -4.22398,26.8955 26.23741,31.7712 56.61018,41.7477 20.2699,6.658 49.08367,14.4783 72.72214,24.0545 20.61859,8.3529 30.62325,26.1764 32.14686,28.706 6.76663,10.9317 10.26329,24.0445 4.55095,51.6324 -4.88663,23.6001 -26.31945,51.8868 -34.18249,62.7683 7.50241,-11.1897 12.42069,-21.0962 13.00489,-31.9608 0.2482,-16.5476 -5.96792,-40.5425 -31.23356,-53.433 -15.46506,-8.5533 -37.12798,-11.699 -63.98753,-13.8193 -33.0983,-2.1408 -58.96329,-14.4237 -74.50343,-28.4722 -12.23289,-12.0006 -19.52257,-37.0278 -16.74541,-61.2083 2.62558,-22.8607 21.21358,-47.5642 31.5205,-59.1311 37.82376,-41.0446 42.70176,-44.9626 52.65677,-76.4268 3.18394,-18.9803 -7.72033,-35.3316 -23.75847,-42.3924 m 58.46314,-37.35607 c 9.26721,-0.14145 20.77331,-0.54654 26.37544,1.24527 3.10655,0.99362 12.6666,10.7668 17.69717,18.4793 4.33568,6.6472 7.5181,11.9247 13.21609,18.6458 4.37182,5.1568 11.21422,9.8358 16.25295,11.9507 -17.01612,3.7042 -37.2358,-4.1962 -50.45591,15.7758 -3.00504,5.4389 -2.47916,11.1282 -1.40956,14.8606 2.57627,8.99 15.30674,19.7805 19.5426,25.6693 4.07021,5.5206 10.19678,16.9628 11.72522,25.5405 1.01917,5.7196 0.59397,13.1324 -1.79837,20.8331 -1.85812,5.4868 -3.23561,9.537 -6.47252,15.7449 -2.48042,4.7571 -7.1065,10.6462 -10.83694,14.198 -3.74783,3.5683 -24.98085,18.607 -33.1339,24.5534 -6.01408,4.3863 -17.02655,19.2616 -22.86284,29.2826 M 694.254,987.40405 c 19.14499,-16.13126 24.79591,-23.41315 39.94682,-28.60959 -10.1332,10.43526 -16.54801,23.99976 -17.74435,37.53788 m -84.77623,36.13676 c 14.73626,-12.4377 26.15067,-23.0142 30.78035,-34.2523 17.22329,-41.80776 12.64517,-41.29078 13.90637,-50.80801 5.32549,24.74633 15.14427,36.6253 24.16383,47.62252" />
      <ellipse
         style="display:inline;fill:#000000;stroke:#000000;stroke-width:7.719;stroke-linejoin:round;stroke-opacity:1"
         id="path17449"
         cx="765.58441"
         cy="1046.0303"
         rx="4.0366011"
         ry="2.5489576" />
      <path
         style="fill:#ff7c2a;fill-opacity:1;stroke:#ff7c2a;stroke-width:1.6;stroke-linecap:round;stroke-linejoin:round;stroke-miterlimit:4;stroke-dasharray:none;stroke-opacity:1"
         d="m 604.84725,1280.9624 c -13.86034,-8.2473 -20.5195,-15.2122 -25.29948,-26.4613 -4.49516,-10.5787 -6.32258,-20.3595 -6.33632,-33.9133 -0.009,-9.2134 0.13286,-10.7944 1.44396,-16.0537 2.54657,-10.2152 7.06563,-20.0935 14.21918,-31.0819 7.23132,-11.1079 10.27084,-14.7948 28.99945,-35.176 19.37894,-21.0889 25.43936,-28.939 30.92008,-40.051 1.94818,-3.9498 4.81584,-10.906 6.37258,-15.4582 2.7375,-8.0049 2.83021,-8.4766 2.82337,-14.3631 -0.007,-6.404 -0.69377,-9.9688 -3.02289,-15.7007 -2.81994,-6.94 -8.5878,-13.8259 -15.3885,-18.3715 l -3.72277,-2.4884 4.55141,-3.9075 c 6.32523,-5.4303 15.69427,-15.1748 18.81262,-19.5664 1.43608,-2.0225 3.5736,-5.7514 4.75003,-8.2864 4.81063,-10.36631 13.30575,-34.38573 13.30575,-37.62122 0,-1.73903 0.74357,-0.6358 2.36926,3.51524 1.17546,3.00144 1.35809,4.12869 1.02926,6.35292 -0.79045,5.34664 1.45248,12.64338 5.88204,19.13549 0.88227,1.29308 1.50057,2.64802 1.37401,3.01097 -0.12656,0.36295 0.0307,1.14721 0.34944,1.7428 0.54384,1.01617 1.35438,1.09679 13.15597,1.30855 8.3296,0.14945 13.13605,0.45896 14.23371,0.91656 3.39846,1.4168 12.43083,11.51399 19.06907,21.31719 3.48842,5.1516 6.54986,9.7023 6.80322,10.1127 0.55092,0.8924 0.49372,0.884 -14.27132,-2.0918 -19.65714,-3.9617 -28.0636,-4.6824 -35.7111,-3.0615 -11.67873,2.4754 -17.78671,11.1096 -17.80345,25.1669 -0.006,4.8984 0.22787,6.4786 1.50259,10.1599 4.54197,13.1172 14.66134,20.1389 31.53218,21.8796 3.01636,0.3112 5.52063,0.6253 5.56505,0.6979 0.0444,0.073 0.64887,0.9543 1.34321,1.9593 0.69434,1.0049 1.17317,1.895 1.06406,1.9778 -0.1091,0.083 -3.18148,1.8374 -6.8275,3.8989 -18.75366,10.6036 -27.79971,18.8742 -33.8691,30.966 -4.6217,9.2075 -6.60644,17.8566 -7.09904,30.9359 -0.40919,10.8648 0.30664,18.9777 2.9977,33.9743 1.91146,10.652 2.03308,12.0147 2.04743,22.9401 l 0.0152,11.6154 -2.41119,3.9907 c -1.32616,2.1949 -2.53769,3.9907 -2.69228,3.9907 -0.1546,0 -5.5238,-1.6362 -11.93156,-3.6359 -17.56918,-5.483 -24.31291,-8.2892 -30.55589,-12.7148 -6.74767,-4.7833 -9.55096,-10.1144 -9.57217,-18.2037 -0.0129,-4.9101 -0.4643,-6.3253 -2.01764,-6.3253 -1.79404,0 -2.41489,1.7018 -2.41489,6.6194 0,7.7882 1.87096,12.5539 7.00722,17.8486 3.21752,3.3167 5.80403,5.1287 11.17608,7.8292 7.50237,3.7713 13.78418,5.8648 70.48126,23.4884 21.42629,6.6601 40.2388,13.3221 46.31598,16.4016 3.68288,1.8663 7.15804,4.0671 6.87263,4.3525 -0.12375,0.1238 -4.55974,-0.6295 -9.85777,-1.674 -14.88194,-2.9338 -21.27922,-3.6547 -35.32065,-3.9802 -14.34566,-0.3326 -22.92484,0.3649 -36.17901,2.9414 -16.72056,3.2502 -37.87609,10.6981 -55.5844,19.5685 l -5.30856,2.6592 z"
         id="path36557" />
      <path
         style="fill:#ff7c2a;fill-opacity:1;stroke:#ff7c2a;stroke-width:0.3125;stroke-linecap:round;stroke-linejoin:round;stroke-miterlimit:4;stroke-dasharray:none;stroke-opacity:1"
         d="m 710.83985,993.25825 c -0.64453,-0.0777 -3.02791,-0.20969 -5.2964,-0.29322 l -4.12453,-0.15186 -1.28122,-1.58788 c -0.70467,-0.87332 -1.64069,-2.03935 -2.08005,-2.59116 l -0.79884,-1.0033 4.23021,-3.67869 c 14.11854,-12.27783 16.34097,-14.1128 20.25417,-16.72302 1.80375,-1.20315 4.6308,-2.87365 4.86321,-2.87365 0.0514,0 -0.73479,1.25052 -1.74709,2.77894 -1.01231,1.52841 -2.24765,3.52793 -2.7452,4.44336 -0.49756,0.91543 -1.68341,2.58727 -2.63524,3.7152 -0.95182,1.12793 -2.42305,3.07997 -3.26939,4.33786 -2.59456,3.8562 -3.69644,6.55452 -3.85624,9.44332 -0.091,1.64401 0.0893,2.7694 0.66298,4.13875 0.11302,0.26979 -0.2525,0.27741 -2.17637,0.0453 z"
         id="path36633" />
      <path
         style="fill:#ffffff;fill-opacity:1;stroke:#ffffff;stroke-width:0.884;stroke-linecap:round;stroke-linejoin:round;stroke-miterlimit:4;stroke-dasharray:none;stroke-opacity:1"
         d="m 672.8563,1208.8255 c 0,-10.2281 -0.17402,-12.3133 -1.90363,-22.8112 -3.16777,-19.2269 -3.70215,-27.9795 -2.46181,-40.3225 1.63998,-16.3198 7.45008,-28.9174 17.8982,-38.8075 5.09346,-4.8213 12.18971,-9.7916 22.5918,-15.8234 l 6.56971,-3.8095 1.6456,1.8961 c 0.90508,1.0429 3.70836,4.155 6.22952,6.9157 5.68619,6.2266 8.78109,10.6397 12.06642,17.2058 5.44479,10.8822 6.84429,18.5883 5.07641,27.9526 -1.7061,9.0371 -7.17294,21.8625 -11.94001,28.0118 -5.24526,6.7662 -8.146,9.175 -30.47177,25.3044 -11.49779,8.3067 -14.24167,10.9113 -21.2122,20.1351 l -4.08824,5.4098 z"
         id="path37938" />
      <path
         style="fill:#ffffff;fill-opacity:1;stroke:#ffffff;stroke-width:0.172656;stroke-linecap:round;stroke-linejoin:round;stroke-miterlimit:4;stroke-dasharray:none;stroke-opacity:1"
         d="m 710.0586,1081.426 c -0.21485,-0.035 -1.92871,-0.249 -3.8086,-0.4752 -9.58419,-1.1535 -16.09446,-3.6138 -21.52318,-8.1338 -4.41516,-3.6761 -7.97013,-9.699 -9.54793,-16.1764 -0.79979,-3.2833 -0.69188,-10.2 0.22548,-14.4531 2.69214,-12.4812 11.67166,-18.1304 27.42766,-17.2552 l 3.32032,0.1845 1.46484,0.8111 c 3.4629,1.9176 4.04938,2.1611 5.22519,2.1697 1.38546,0.01 2.97794,-0.634 2.97794,-1.2045 0,-0.3696 0.0302,-0.3695 2.09961,0 1.15478,0.2078 4.56054,0.8621 7.56835,1.4541 15.72927,3.0954 16.32864,3.1889 16.70971,2.607 0.21962,-0.3353 0.12217,-0.4332 2.62623,2.6392 2.92801,3.5926 5.89655,6.3298 9.9117,9.1391 l 2.09921,1.4688 -0.73202,0.1153 c -0.40261,0.063 -4.15975,0.2012 -8.3492,0.3062 -4.18945,0.105 -8.54004,0.2839 -9.66797,0.3976 -10.16365,1.0239 -16.67261,3.8784 -22.39801,9.8227 -3.42577,3.5568 -5.13251,6.3381 -6.16347,10.0442 -0.36572,1.3147 -0.42185,2.0222 -0.42248,5.3247 -5.9e-4,3.5108 0.0398,3.958 0.51687,5.7183 0.28469,1.0503 0.912,2.7422 1.39403,3.7597 l 0.87641,1.8502 -0.72003,-0.027 c -0.39602,-0.015 -0.89582,-0.055 -1.11066,-0.09 z"
         id="path38902" />
      <path
         style="fill:#ffffff;fill-opacity:1;stroke:#ffffff;stroke-width:0.690625;stroke-linecap:round;stroke-linejoin:round;stroke-miterlimit:4;stroke-dasharray:none;stroke-opacity:1"
         d="m 759.70592,1364.6473 c -0.0705,-9.9098 -1.58716,-16.6385 -5.76707,-25.5848 -5.7633,-12.3353 -13.64475,-20.4352 -26.43686,-27.1696 -13.60596,-7.1628 -27.74096,-10.4464 -58.05657,-13.4865 -10.90982,-1.094 -23.22783,-2.6765 -27.37336,-3.5166 -8.08199,-1.6378 -21.4762,-6.0311 -27.09758,-8.888 l -3.44743,-1.752 10.05679,-4.5368 c 41.92271,-18.912 75.36558,-23.8011 114.74429,-16.7749 5.15625,0.92 11.45333,1.931 13.99351,2.2467 4.54993,0.5653 4.71883,0.6773 11.37321,7.5383 14.304,14.7481 19.16953,28.2716 17.19572,47.7945 -1.73931,17.2036 -5.57645,29.1345 -14.35818,44.6443 -2.45547,4.3367 -4.53251,7.8845 -4.61563,7.8838 -0.0831,-6e-4 -0.178,-3.7799 -0.21084,-8.3984 z"
         id="path38941" />
      <path
         style="fill:#ffffff;fill-opacity:1;stroke:#ffffff;stroke-width:0.0863281;stroke-linecap:round;stroke-linejoin:round;stroke-miterlimit:4;stroke-dasharray:none;stroke-opacity:1"
         d="m 688.57422,993.45943 c 0,-0.24163 -0.80309,-1.68976 -1.68021,-3.02974 -3.86558,-5.90548 -5.9393,-12.44246 -5.45755,-17.20381 0.0697,-0.68927 0.1495,-1.61152 0.17724,-2.04945 l 0.0504,-0.79622 1.14578,2.3099 c 2.40027,4.83898 5.09673,9.28265 8.28254,13.64936 0.59234,0.81191 1.15795,1.6327 1.25691,1.824 0.099,0.19129 0.43323,0.62564 0.7428,0.96522 0.30958,0.33957 1.13623,1.34251 1.83702,2.22874 l 1.27415,1.61133 -3.25736,0.0488 -3.25736,0.0488 -0.51738,0.26856 c -0.60335,0.31318 -0.59701,0.31185 -0.59701,0.12446 z"
         id="path38980" />
      <path
         style="fill:#ffffff;fill-opacity:1;stroke:#ffffff;stroke-width:0.0863281;stroke-linecap:round;stroke-linejoin:round;stroke-miterlimit:4;stroke-dasharray:none;stroke-opacity:1"
         d="m 713.79395,993.66852 c -0.51995,-0.0846 -0.61054,-0.12929 -0.6116,-0.30187 -6.8e-4,-0.11142 -0.11021,-0.54376 -0.24338,-0.96075 -0.65162,-2.04034 -0.51167,-4.47971 0.40568,-7.07085 0.59431,-1.67866 1.96403,-4.10311 3.64876,-6.45841 1.11083,-1.55297 3.8224,-5.01721 3.88115,-4.95846 0.0198,0.0198 -0.1645,0.43543 -0.40965,0.92354 -2.51228,5.00227 -4.61255,11.53728 -5.48054,17.05282 -0.14369,0.91308 -0.27668,1.71508 -0.29553,1.78222 -0.0376,0.13377 -0.0209,0.13393 -0.89489,-0.008 z"
         id="path39019" />
    </g>
    <g
       id="layer2"
       style="display:inline"
       transform="translate(-568.66089,-945.40976)">
      <path
         style="display:inline;fill:#000000;fill-opacity:1;fill-rule:evenodd;stroke:#000000;stroke-width:1px;stroke-linecap:butt;stroke-linejoin:miter;stroke-opacity:1"
         d="m 687.97158,1022.4451 c 6.10144,-8.1299 27.84319,-4.3115 27.19486,4.4506 -4.3412,2.6291 -6.59174,-3.3414 -12.98933,-3.0313 -11.41363,0.5532 -15.00609,0.5301 -14.20553,-1.4193 z"
         id="path128" />
    </g>
  </g>
</svg>
